<?xml version="1.0" encoding="utf-8"?>
<!-- Generator: Adobe Illustrator 19.1.0, SVG Export Plug-In . SVG Version: 6.00 Build 0)  -->
<svg version="1.1" id="scene-template-vis-two" xmlns="http://www.w3.org/2000/svg" xmlns:xlink="http://www.w3.org/1999/xlink"
	 x="0px" y="0px" viewBox="-255 198.5 128 90" style="enable-background:new -255 198.5 128 90;" xml:space="preserve">
<style type="text/css">
	.st0{fill:#E9E9E9;}
	.st1{fill:#343334;}
	.st2{fill:#0EB79F;}
</style>
<rect id="XMLID_124_" x="-251" y="200" class="st0" width="120" height="12"/>
<rect id="XMLID_122_" x="-251" y="212" class="st1" width="120" height="0.9"/>
<path id="XMLID_341_" class="st1" d="M-251,200v82h120v-82H-251z M-132,281h-118v-80h118V281z"/>
<path class="st1" d="M-192,271h1v3h-1V271z M-192,266h1v3h-1V266z M-192,260h1v3h-1V260z M-192,255h1v3h-1V255z M-192,250h1v3h-1
	V250z M-192,245h1v3h-1V245z M-192,240h1v3h-1V240z M-192,235h1v3h-1V235z M-192,230h1v3h-1V230z M-192,225h1v3h-1V225z M-192,220h1
	v3h-1V220z M-239,276h3v1h-3V276z M-244,276h3v1h-3V276z M-234,276h3v1h-3V276z M-229,276h3v1h-3V276z M-224,276h3v1h-3V276z
	 M-219,276h3v1h-3V276z M-214,276h3v1h-3V276z M-209,276h3v1h-3V276z M-204,276h3v1h-3V276z M-199,276h3v1h-3V276z M-194,276h3v1h-3
	V276z M-189,276h3v1h-3V276z M-184,276h3v1h-3V276z M-179,276h3v1h-3V276z M-174,276h3v1h-3V276z M-169,276h3v1h-3V276z M-164,276h3
	v1h-3V276z M-159,276h3v1h-3V276z M-154,276h3v1h-3V276z M-149,276h3v1h-3V276z M-144,276h3v1h-3V276z M-139,276h3v1h-3V276z
	 M-144,217h3v1h-3V217z M-139,217h3v1h-3V217z M-149,217h3v1h-3V217z M-154,217h3v1h-3V217z M-159,217h3v1h-3V217z M-164,217h3v1h-3
	V217z M-169,217h3v1h-3V217z M-174,217h3v1h-3V217z M-179,217h3v1h-3V217z M-184,217h3v1h-3V217z M-189,217h3v1h-3V217z M-194,217h3
	v1h-3V217z M-199,217h3v1h-3V217z M-204,217h3v1h-3V217z M-209,217h3v1h-3V217z M-214,217h3v1h-3V217z M-219,217h3v1h-3V217z
	 M-224,217h3v1h-3V217z M-229,217h3v1h-3V217z M-234,217h3v1h-3V217z M-239,217h3v1h-3V217z M-244,217h3v1h-3V217z M-137,271h1v3h-1
	V271z M-137,266h1v3h-1V266z M-137,261h1v3h-1V261z M-137,256h1v3h-1V256z M-137,251h1v3h-1V251z M-137,246h1v3h-1V246z M-137,241h1
	v3h-1V241z M-137,236h1v3h-1V236z M-137,231h1v3h-1V231z M-137,226h1v3h-1V226z M-137,221h1v3h-1V221z M-137,217h1v2h-1V217z
	 M-246,223h1v3h-1V223z M-246,218h1v3h-1V218z M-246,228h1v3h-1V228z M-246,233h1v3h-1V233z M-246,238h1v3h-1V238z M-246,243h1v3h-1
	V243z M-246,248h1v3h-1V248z M-246,253h1v3h-1V253z M-246,258h1v3h-1V258z M-246,263h1v3h-1V263z M-246,268h1v3h-1V268z M-246,273h1
	v3h-1V273z"/>
<path id="highlight" class="st2" d="M-172,250h3v4h-3V250z M-168,246h3v8h-3V246z M-164,238h3v16h-3V238z M-160,244h3v10h-3V244z
	 M-226,250h3v4h-3V250z M-222,246h3v8h-3V246z M-218,238h3v16h-3V238z M-214,244h3v10h-3V244z"/>
</svg>
