<?xml version="1.0" encoding="utf-8"?>
<!-- Generator: Adobe Illustrator 22.0.1, SVG Export Plug-In . SVG Version: 6.00 Build 0)  -->
<svg version="1.1" id="scene-template-vis-two" xmlns="http://www.w3.org/2000/svg" xmlns:xlink="http://www.w3.org/1999/xlink"
	 x="0px" y="0px" viewBox="0 0 128 128" style="enable-background:new 0 0 128 128;" xml:space="preserve">
<style type="text/css">
	.st0{fill:#E9E9E9;}
	.st1{fill:#343334;}
	.st2{fill:#0EB79F;}
</style>
<rect id="XMLID_124_" x="4" y="23" class="st0" width="120" height="12"/>
<rect id="XMLID_122_" x="4" y="35" class="st1" width="120" height="0.9"/>
<path id="XMLID_341_" class="st1" d="M4,23v82h120V23H4z M123,104H5V24h118V104z"/>
<path class="st1" d="M63,94h1v3h-1V94z M63,89h1v3h-1V89z M63,83h1v3h-1V83z M63,78h1v3h-1V78z M63,73h1v3h-1V73z M63,68h1v3h-1V68z
	 M63,63h1v3h-1V63z M63,58h1v3h-1V58z M63,53h1v3h-1V53z M63,48h1v3h-1V48z M63,43h1v3h-1V43z M16,99h3v1h-3V99z M11,99h3v1h-3V99z
	 M21,99h3v1h-3V99z M26,99h3v1h-3V99z M31,99h3v1h-3V99z M36,99h3v1h-3V99z M41,99h3v1h-3V99z M46,99h3v1h-3V99z M51,99h3v1h-3V99z
	 M56,99h3v1h-3V99z M61,99h3v1h-3V99z M66,99h3v1h-3V99z M71,99h3v1h-3V99z M76,99h3v1h-3V99z M81,99h3v1h-3V99z M86,99h3v1h-3V99z
	 M91,99h3v1h-3V99z M96,99h3v1h-3V99z M101,99h3v1h-3V99z M106,99h3v1h-3V99z M111,99h3v1h-3V99z M116,99h3v1h-3V99z M111,40h3v1h-3
	V40z M116,40h3v1h-3V40z M106,40h3v1h-3V40z M101,40h3v1h-3V40z M96,40h3v1h-3V40z M91,40h3v1h-3V40z M86,40h3v1h-3V40z M81,40h3v1
	h-3V40z M76,40h3v1h-3V40z M71,40h3v1h-3V40z M66,40h3v1h-3V40z M61,40h3v1h-3V40z M56,40h3v1h-3V40z M51,40h3v1h-3V40z M46,40h3v1
	h-3V40z M41,40h3v1h-3V40z M36,40h3v1h-3V40z M31,40h3v1h-3V40z M26,40h3v1h-3V40z M21,40h3v1h-3V40z M16,40h3v1h-3V40z M11,40h3v1
	h-3V40z M118,94h1v3h-1V94z M118,89h1v3h-1V89z M118,84h1v3h-1V84z M118,79h1v3h-1V79z M118,74h1v3h-1V74z M118,69h1v3h-1V69z
	 M118,64h1v3h-1V64z M118,59h1v3h-1V59z M118,54h1v3h-1V54z M118,49h1v3h-1V49z M118,44h1v3h-1V44z M118,40h1v2h-1V40z M9,46h1v3H9
	V46z M9,41h1v3H9V41z M9,51h1v3H9V51z M9,56h1v3H9V56z M9,61h1v3H9V61z M9,66h1v3H9V66z M9,71h1v3H9V71z M9,76h1v3H9V76z M9,81h1v3
	H9V81z M9,86h1v3H9V86z M9,91h1v3H9V91z M9,96h1v3H9V96z"/>
<path id="highlight" class="st2" d="M83,73h3v4h-3V73z M87,69h3v8h-3V69z M91,61h3v16h-3V61z M95,67h3v10h-3V67z M29,73h3v4h-3V73z
	 M33,69h3v8h-3V69z M37,61h3v16h-3V61z M41,67h3v10h-3V67z"/>
</svg>
