<svg xmlns="http://www.w3.org/2000/svg" width="50" height="50" viewBox="0 0 50 50"><defs><style>.cls-1{fill:#41d6c3;}.cls-2{fill:#fff;}.cls-3{fill:#00639f;}</style></defs><title>DDE_50</title><g id="Layer_2" data-name="Layer 2"><g id="New_Symbol_11" data-name="New Symbol 11"><rect class="cls-1" x="17.59" y="12.55" width="24.89" height="24.89" transform="translate(-8.88 28.56) rotate(-45)"/><polygon class="cls-2" points="33.63 28.46 32.1 26.92 34.02 25 32.1 23.08 33.63 21.54 37.09 25 33.63 28.46"/><rect class="cls-2" x="24.92" y="32.01" width="5.09" height="2.17" transform="translate(-15.36 29.11) rotate(-45)"/><polygon class="cls-3" points="19.37 42.72 15.91 39.27 17.45 37.73 19.37 39.65 21.29 37.73 22.83 39.27 19.37 42.72"/><rect class="cls-3" x="10.19" y="30.55" width="2.17" height="5.1" transform="translate(-20.1 17.66) rotate(-44.99)"/><polygon class="cls-3" points="5.1 28.46 1.65 25 5.1 21.54 6.64 23.08 4.72 25 6.64 26.92 5.1 28.46"/><rect class="cls-3" x="8.73" y="15.82" width="5.1" height="2.17" transform="translate(-8.65 12.93) rotate(-45)"/><polygon class="cls-3" points="21.29 12.27 19.37 10.35 17.45 12.27 15.91 10.73 19.37 7.28 22.83 10.73 21.29 12.27"/><rect class="cls-2" x="26.38" y="14.36" width="2.17" height="5.09" transform="translate(-3.91 24.37) rotate(-45)"/></g></g></svg>