<svg xmlns="http://www.w3.org/2000/svg" width="128" height="128" viewBox="0 0 128 128"><defs><style>.cls-1{fill:#eaeaea;}.cls-2{fill:#fff;}.cls-3{fill:#c0bfc0;}.cls-4{fill:#00baa1;}</style></defs><title>em-select-table_128</title><g id="select-table"><g id="background"><rect class="cls-1" x="23" y="8" width="72" height="104"/><rect class="cls-2" x="34" y="17" width="70" height="102"/><path class="cls-3" d="M103,18V118H35V18h68m2-2H33V120h72Z"/><rect class="cls-3" x="67" y="50" width="20" height="4"/><polygon class="cls-3" points="57.9 58 63.5 52 57.9 46 56.5 47.5 60.7 52 56.5 56.5 57.9 58"/><rect class="cls-3" x="68" y="83" width="20" height="4"/><polygon class="cls-3" points="57.9 91 63.5 85 57.9 79 56.5 80.5 60.7 85 56.5 89.5 57.9 91"/><rect class="cls-3" x="68" y="99" width="24" height="4"/><polygon class="cls-3" points="57.9 107 63.5 101 57.9 95 56.5 96.5 60.7 101 56.5 105.5 57.9 107"/></g><path id="highlight" class="cls-4" d="M56.5,72.5,60.7,68l-4.2-4.5L57.9,62l5.6,6-5.6,6ZM42,34.9l6,5.6,6-5.6-1.5-1.4L48,37.7l-4.5-4.2ZM90,63H70v8H90V63m2,10H68V61H92ZM89,31H61v8H89V31m2,10H59V29H91Z"/></g></svg>